<?xml version="1.0" standalone="no"?>
<!DOCTYPE svg PUBLIC "-//W3C//DTD SVG 20010904//EN"
 "http://www.w3.org/TR/2001/REC-SVG-20010904/DTD/svg10.dtd">
<svg version="1.0" xmlns="http://www.w3.org/2000/svg"
 width="81.000000pt" height="37.000000pt" viewBox="0 0 81.000000 37.000000"
 preserveAspectRatio="xMidYMid meet">
<metadata>
Created by potrace 1.11, written by Peter Selinger 2001-2013
</metadata>
<g transform="translate(0.000000,37.000000) scale(0.100000,-0.100000)"
fill="#000000" stroke="none">
<path d="M42 241 c-33 -17 -34 -19 -35 -89 -1 -40 -1 -72 1 -72 1 0 20 9 42
20 49 25 60 25 60 0 0 -20 1 -20 30 -5 29 15 30 18 30 86 l0 70 -22 -15 c-32
-22 -58 -20 -58 4 0 24 -5 24 -48 1z"/>
</g>
</svg>
